<?xml version="1.0" encoding="UTF-8" standalone="no"?>
<svg
   xmlns:dc="http://purl.org/dc/elements/1.1/"
   xmlns:cc="http://creativecommons.org/ns#"
   xmlns:rdf="http://www.w3.org/1999/02/22-rdf-syntax-ns#"
   xmlns:svg="http://www.w3.org/2000/svg"
   xmlns="http://www.w3.org/2000/svg"
   xmlns:sodipodi="http://sodipodi.sourceforge.net/DTD/sodipodi-0.dtd"
   xmlns:inkscape="http://www.inkscape.org/namespaces/inkscape"
   version="1.1"
   id="svg2"
   xml:space="preserve"
   width="480"
   height="144"
   viewBox="0 0 480 144"
   sodipodi:docname="Makpar_rgb_color.eps"><metadata
     id="metadata8"><rdf:RDF><cc:Work
         rdf:about=""><dc:format>image/svg+xml</dc:format><dc:type
           rdf:resource="http://purl.org/dc/dcmitype/StillImage" /></cc:Work></rdf:RDF></metadata><defs
     id="defs6" /><sodipodi:namedview
     pagecolor="#ffffff"
     bordercolor="#666666"
     borderopacity="1"
     objecttolerance="10"
     gridtolerance="10"
     guidetolerance="10"
     inkscape:pageopacity="0"
     inkscape:pageshadow="2"
     inkscape:window-width="640"
     inkscape:window-height="480"
     id="namedview4" /><g
     id="g10"
     inkscape:groupmode="layer"
     inkscape:label="ink_ext_XXXXXX"
     transform="matrix(1.3333333,0,0,-1.3333333,0,144)"><g
       id="g12"
       transform="scale(0.1)"><path
         d="M 473.035,579.074 333.434,803.652 H 207.484 V 272.559 H 322.055 V 617.008 L 470.004,392.43 h 3.031 L 622.504,619.285 V 272.559 H 738.586 V 803.652 H 612.641 L 473.035,579.074"
         style="fill:#284088;fill-opacity:1;fill-rule:nonzero;stroke:none"
         id="path14" /><path
         d="m 1010.97,494.863 70.55,172.223 70.57,-172.223 z m 18.2,312.582 -227.611,-534.886 h 119.125 l 48.554,119.121 h 224.572 l 48.56,-119.121 h 122.16 l -227.62,534.886 h -107.74"
         style="fill:#284088;fill-opacity:1;fill-rule:nonzero;stroke:none"
         id="path16" /><path
         d="m 2264.38,616.25 c 0,-45.523 -34.16,-80.422 -92.57,-80.422 h -92.56 v 162.363 h 90.28 c 58.42,0 94.85,-28.074 94.85,-80.421 z m 118.34,3.793 c 0,108.5 -76.63,183.609 -203.33,183.609 H 1962.4 V 272.559 h 116.85 v 159.336 h 88.77 c 119.11,0 214.7,63.718 214.7,186.628 v 1.52"
         style="fill:#284088;fill-opacity:1;fill-rule:nonzero;stroke:none"
         id="path18" /><path
         d="m 2560.99,494.863 70.55,172.223 70.56,-172.223 z m 18.2,312.582 -227.62,-534.886 h 119.12 l 48.56,119.121 h 224.58 l 48.55,-119.121 h 122.16 l -227.62,534.886 h -107.73"
         style="fill:#284088;fill-opacity:1;fill-rule:nonzero;stroke:none"
         id="path20" /><path
         d="M 1893.47,803.652 H 1752.35 L 1536.88,571.484 V 434.922 l 61.45,63.73 164.64,-226.093 h 140.36 l -226.09,305.761 216.23,225.332"
         style="fill:#284088;fill-opacity:1;fill-rule:nonzero;stroke:none"
         id="path22" /><path
         d="m 1420.03,272.559 h 23.24 v 430.937 h -23.24 V 272.559"
         style="fill:#284088;fill-opacity:1;fill-rule:nonzero;stroke:none"
         id="path24" /><path
         d="m 1454.58,272.559 h 23.23 v 481.453 h -23.23 V 272.559"
         style="fill:#284088;fill-opacity:1;fill-rule:nonzero;stroke:none"
         id="path26" /><path
         d="m 1515.16,803.652 h -23.24 V 272.559 h 23.24 v 162.363 136.562 232.168"
         style="fill:#284088;fill-opacity:1;fill-rule:nonzero;stroke:none"
         id="path28" /><path
         d="m 3313.19,622.699 c 0,-44.765 -32.62,-75.105 -89.53,-75.105 h -118.35 v 152.492 h 116.08 c 56.9,0 91.8,-25.793 91.8,-75.871 z m 4.55,-158.57 c 67.52,25.039 113.8,78.906 113.8,164.644 v 1.52 c 0,50.074 -15.92,91.797 -45.5,121.387 -34.91,34.902 -87.26,53.867 -154.79,53.867 H 2988.47 V 274.453 h 116.84 v 169.949 h 90.29 1.51 l 113.81,-169.949 h 136.56 l -129.74,189.676"
         style="fill:#284088;fill-opacity:1;fill-rule:nonzero;stroke:none"
         id="path30" /><path
         d="M 473.035,579.074 333.434,803.652 H 207.484 V 272.559 H 322.055 V 617.008 L 470.004,392.43 h 3.031 L 622.504,619.285 V 272.559 H 738.586 V 803.652 H 612.641 L 473.035,579.074"
         style="fill:#284088;fill-opacity:1;fill-rule:nonzero;stroke:none"
         id="path32" /><path
         d="m 1010.97,494.863 70.55,172.223 70.57,-172.223 z m 18.2,312.582 -227.611,-534.886 h 119.125 l 48.554,119.121 h 224.572 l 48.56,-119.121 h 122.16 l -227.62,534.886 h -107.74"
         style="fill:#284088;fill-opacity:1;fill-rule:nonzero;stroke:none"
         id="path34" /><path
         d="m 2264.38,616.25 c 0,-45.523 -34.16,-80.422 -92.57,-80.422 h -92.56 v 162.363 h 90.28 c 58.42,0 94.85,-28.074 94.85,-80.421 z m 118.34,3.793 c 0,108.5 -76.63,183.609 -203.33,183.609 H 1962.4 V 272.559 h 116.85 v 159.336 h 88.77 c 119.11,0 214.7,63.718 214.7,186.628 v 1.52"
         style="fill:#284088;fill-opacity:1;fill-rule:nonzero;stroke:none"
         id="path36" /><path
         d="m 2560.99,494.863 70.55,172.223 70.56,-172.223 z m 18.2,312.582 -227.62,-534.886 h 119.12 l 48.56,119.121 h 224.58 l 48.55,-119.121 h 122.16 l -227.62,534.886 h -107.73"
         style="fill:#284088;fill-opacity:1;fill-rule:nonzero;stroke:none"
         id="path38" /><path
         d="M 1893.47,803.652 H 1752.35 L 1536.88,571.484 V 434.922 l 61.45,63.73 164.64,-226.093 h 140.36 l -226.09,305.761 216.23,225.332"
         style="fill:#284088;fill-opacity:1;fill-rule:nonzero;stroke:none"
         id="path40" /><path
         d="m 1420.03,272.559 h 23.24 v 430.937 h -23.24 V 272.559"
         style="fill:#284088;fill-opacity:1;fill-rule:nonzero;stroke:none"
         id="path42" /><path
         d="m 1454.58,272.559 h 23.23 v 481.453 h -23.23 V 272.559"
         style="fill:#284088;fill-opacity:1;fill-rule:nonzero;stroke:none"
         id="path44" /><path
         d="m 1515.16,803.652 h -23.24 V 272.559 h 23.24 v 162.363 136.562 232.168"
         style="fill:#284088;fill-opacity:1;fill-rule:nonzero;stroke:none"
         id="path46" /><path
         d="m 3313.19,622.699 c 0,-44.765 -32.62,-75.105 -89.53,-75.105 h -118.35 v 152.492 h 116.08 c 56.9,0 91.8,-25.793 91.8,-75.871 z m 4.55,-158.57 c 67.52,25.039 113.8,78.906 113.8,164.644 v 1.52 c 0,50.074 -15.92,91.797 -45.5,121.387 -34.91,34.902 -87.26,53.867 -154.79,53.867 H 2988.47 V 274.453 h 116.84 v 169.949 h 90.29 1.51 l 113.81,-169.949 h 136.56 l -129.74,189.676"
         style="fill:#284088;fill-opacity:1;fill-rule:nonzero;stroke:none"
         id="path48" /></g></g></svg>
