<?xml version="1.0" encoding="UTF-8" standalone="no"?>
<svg
   xmlns:dc="http://purl.org/dc/elements/1.1/"
   xmlns:cc="http://creativecommons.org/ns#"
   xmlns:rdf="http://www.w3.org/1999/02/22-rdf-syntax-ns#"
   xmlns:svg="http://www.w3.org/2000/svg"
   xmlns="http://www.w3.org/2000/svg"
   xmlns:sodipodi="http://sodipodi.sourceforge.net/DTD/sodipodi-0.dtd"
   xmlns:inkscape="http://www.inkscape.org/namespaces/inkscape"
   version="1.1"
   id="svg2"
   xml:space="preserve"
   width="480"
   height="143.56"
   viewBox="0 0 480 143.56"
   sodipodi:docname="Makpar_rgb_white.eps"><metadata
     id="metadata8"><rdf:RDF><cc:Work
         rdf:about=""><dc:format>image/svg+xml</dc:format><dc:type
           rdf:resource="http://purl.org/dc/dcmitype/StillImage" /></cc:Work></rdf:RDF></metadata><defs
     id="defs6" /><sodipodi:namedview
     pagecolor="#ffffff"
     bordercolor="#666666"
     borderopacity="1"
     objecttolerance="10"
     gridtolerance="10"
     guidetolerance="10"
     inkscape:pageopacity="0"
     inkscape:pageshadow="2"
     inkscape:window-width="640"
     inkscape:window-height="480"
     id="namedview4" /><g
     id="g10"
     inkscape:groupmode="layer"
     inkscape:label="ink_ext_XXXXXX"
     transform="matrix(1.3333333,0,0,-1.3333333,0,143.56)"><g
       id="g12"
       transform="scale(0.1)"><path
         d="M 473.035,575.762 333.434,800.332 H 207.484 V 269.238 h 114.571 v 344.453 l 147.949,-224.57 h 3.031 L 622.504,615.965 V 269.238 H 738.586 V 800.332 H 612.641 L 473.035,575.762"
         style="fill:#ffffff;fill-opacity:1;fill-rule:nonzero;stroke:none"
         id="path14" /><path
         d="m 1010.97,491.543 70.55,172.215 70.57,-172.215 z m 18.2,312.578 -227.611,-534.883 h 119.125 l 48.554,119.121 h 224.572 l 48.56,-119.121 h 122.16 l -227.62,534.883 h -107.74"
         style="fill:#ffffff;fill-opacity:1;fill-rule:nonzero;stroke:none"
         id="path16" /><path
         d="m 2264.38,612.93 c 0,-45.52 -34.16,-80.422 -92.57,-80.422 h -92.56 v 162.363 h 90.28 c 58.42,0 94.85,-28.074 94.85,-80.43 z m 118.34,3.797 c 0,108.496 -76.63,183.605 -203.33,183.605 H 1962.4 V 269.238 h 116.85 v 159.336 h 88.77 c 119.11,0 214.7,63.731 214.7,186.629 v 1.524"
         style="fill:#ffffff;fill-opacity:1;fill-rule:nonzero;stroke:none"
         id="path18" /><path
         d="m 2560.99,491.543 70.55,172.215 70.56,-172.215 z m 18.2,312.586 -227.62,-534.891 h 119.12 l 48.56,119.121 h 224.58 l 48.55,-119.121 h 122.16 l -227.62,534.891 h -107.73"
         style="fill:#ffffff;fill-opacity:1;fill-rule:nonzero;stroke:none"
         id="path20" /><path
         d="M 1893.47,800.332 H 1752.35 L 1536.88,568.164 V 431.602 l 61.45,63.73 164.64,-226.094 h 140.36 L 1677.24,575 1893.47,800.332"
         style="fill:#ffffff;fill-opacity:1;fill-rule:nonzero;stroke:none"
         id="path22" /><path
         d="m 1420.03,269.238 h 23.24 v 430.938 h -23.24 V 269.238"
         style="fill:#ffffff;fill-opacity:1;fill-rule:nonzero;stroke:none"
         id="path24" /><path
         d="m 1454.58,269.238 h 23.23 v 481.453 h -23.23 V 269.238"
         style="fill:#ffffff;fill-opacity:1;fill-rule:nonzero;stroke:none"
         id="path26" /><path
         d="m 1515.16,800.332 h -23.24 V 269.238 h 23.24 v 162.364 136.562 232.168"
         style="fill:#ffffff;fill-opacity:1;fill-rule:nonzero;stroke:none"
         id="path28" /><path
         d="m 3313.19,619.375 c 0,-44.758 -32.62,-75.109 -89.53,-75.109 h -118.35 v 152.5 h 116.08 c 56.9,0 91.8,-25.801 91.8,-75.868 z m 4.55,-158.566 c 67.52,25.039 113.8,78.906 113.8,164.648 v 1.516 c 0,50.078 -15.92,91.797 -45.5,121.386 -34.91,34.903 -87.26,53.868 -154.79,53.868 H 2988.47 V 271.133 h 116.84 v 169.949 h 90.29 1.51 l 113.81,-169.949 h 136.56 l -129.74,189.676"
         style="fill:#ffffff;fill-opacity:1;fill-rule:nonzero;stroke:none"
         id="path30" /><path
         d="M 473.035,575.762 333.434,800.332 H 207.484 V 269.238 h 114.571 v 344.453 l 147.949,-224.57 h 3.031 L 622.504,615.965 V 269.238 H 738.586 V 800.332 H 612.641 L 473.035,575.762"
         style="fill:#ffffff;fill-opacity:1;fill-rule:nonzero;stroke:none"
         id="path32" /><path
         d="m 1010.97,491.543 70.55,172.215 70.57,-172.215 z m 18.2,312.578 -227.611,-534.883 h 119.125 l 48.554,119.121 h 224.572 l 48.56,-119.121 h 122.16 l -227.62,534.883 h -107.74"
         style="fill:#ffffff;fill-opacity:1;fill-rule:nonzero;stroke:none"
         id="path34" /><path
         d="m 2264.38,612.93 c 0,-45.52 -34.16,-80.422 -92.57,-80.422 h -92.56 v 162.363 h 90.28 c 58.42,0 94.85,-28.074 94.85,-80.43 z m 118.34,3.797 c 0,108.496 -76.63,183.605 -203.33,183.605 H 1962.4 V 269.238 h 116.85 v 159.336 h 88.77 c 119.11,0 214.7,63.731 214.7,186.629 v 1.524"
         style="fill:#ffffff;fill-opacity:1;fill-rule:nonzero;stroke:none"
         id="path36" /><path
         d="m 2560.99,491.543 70.55,172.215 70.56,-172.215 z m 18.2,312.586 -227.62,-534.891 h 119.12 l 48.56,119.121 h 224.58 l 48.55,-119.121 h 122.16 l -227.62,534.891 h -107.73"
         style="fill:#ffffff;fill-opacity:1;fill-rule:nonzero;stroke:none"
         id="path38" /><path
         d="M 1893.47,800.332 H 1752.35 L 1536.88,568.164 V 431.602 l 61.45,63.73 164.64,-226.094 h 140.36 L 1677.24,575 1893.47,800.332"
         style="fill:#ffffff;fill-opacity:1;fill-rule:nonzero;stroke:none"
         id="path40" /><path
         d="m 1420.03,269.238 h 23.24 v 430.938 h -23.24 V 269.238"
         style="fill:#ffffff;fill-opacity:1;fill-rule:nonzero;stroke:none"
         id="path42" /><path
         d="m 1454.58,269.238 h 23.23 v 481.453 h -23.23 V 269.238"
         style="fill:#ffffff;fill-opacity:1;fill-rule:nonzero;stroke:none"
         id="path44" /><path
         d="m 1515.16,800.332 h -23.24 V 269.238 h 23.24 v 162.364 136.562 232.168"
         style="fill:#ffffff;fill-opacity:1;fill-rule:nonzero;stroke:none"
         id="path46" /><path
         d="m 3313.19,619.375 c 0,-44.758 -32.62,-75.109 -89.53,-75.109 h -118.35 v 152.5 h 116.08 c 56.9,0 91.8,-25.801 91.8,-75.868 z m 4.55,-158.566 c 67.52,25.039 113.8,78.906 113.8,164.648 v 1.516 c 0,50.078 -15.92,91.797 -45.5,121.386 -34.91,34.903 -87.26,53.868 -154.79,53.868 H 2988.47 V 271.133 h 116.84 v 169.949 h 90.29 1.51 l 113.81,-169.949 h 136.56 l -129.74,189.676"
         style="fill:#ffffff;fill-opacity:1;fill-rule:nonzero;stroke:none"
         id="path48" /></g></g></svg>
